<?xml version="1.0" encoding="UTF-8" standalone="no"?>
<!-- Created with Inkscape (http://www.inkscape.org/) -->

<svg
   xmlns:dc="http://purl.org/dc/elements/1.1/"
   xmlns:cc="http://creativecommons.org/ns#"
   xmlns:rdf="http://www.w3.org/1999/02/22-rdf-syntax-ns#"
   xmlns:svg="http://www.w3.org/2000/svg"
   xmlns="http://www.w3.org/2000/svg"
   xmlns:sodipodi="http://sodipodi.sourceforge.net/DTD/sodipodi-0.dtd"
   xmlns:inkscape="http://www.inkscape.org/namespaces/inkscape"
   width="768"
   height="768"
   viewBox="0 0 203.19999 203.2"
   version="1.1"
   id="svg3719"
   sodipodi:docname="10_02_2.svg"
   inkscape:version="0.92.4 (5da689c313, 2019-01-14)">
  <defs
     id="defs3713">
    <inkscape:path-effect
       effect="spiro"
       id="path-effect816"
       is_visible="true" />
  </defs>
  <sodipodi:namedview
     id="base"
     pagecolor="#ffffff"
     bordercolor="#666666"
     borderopacity="1.0"
     inkscape:pageopacity="0.0"
     inkscape:pageshadow="2"
     inkscape:zoom="0.98994949"
     inkscape:cx="247.33352"
     inkscape:cy="437.65282"
     inkscape:document-units="mm"
     inkscape:current-layer="layer1"
     showgrid="true"
     units="px"
     inkscape:window-width="1920"
     inkscape:window-height="1138"
     inkscape:window-x="-8"
     inkscape:window-y="-8"
     inkscape:window-maximized="1">
    <inkscape:grid
       type="xygrid"
       id="grid3721"
       spacingx="8.4666665"
       spacingy="8.4666665"
       enabled="true"
       empspacing="8" />
  </sodipodi:namedview>
  <metadata
     id="metadata3716">
    <rdf:RDF>
      <cc:Work
         rdf:about="">
        <dc:format>image/svg+xml</dc:format>
        <dc:type
           rdf:resource="http://purl.org/dc/dcmitype/StillImage" />
        <dc:title></dc:title>
      </cc:Work>
    </rdf:RDF>
  </metadata>
  <g
     inkscape:label="Vrstva 1"
     inkscape:groupmode="layer"
     id="layer1"
     transform="translate(0,-93.799987)">
    <path
       style="fill:#000000;fill-opacity:1;stroke:#000000;stroke-width:0.26458332px;stroke-linecap:butt;stroke-linejoin:miter;stroke-opacity:1"
       d="m 0,102.26666 c 42.333333,0 59.266666,42.33333 67.733332,67.73333 8.466666,25.4 16.933333,59.26666 33.866668,59.26666 8.46666,0 16.93333,0 25.4,-8.46666 8.46666,-8.46667 8.46666,-16.93333 8.46666,-25.4 0,-16.93333 -16.93333,-16.93333 -33.86666,-33.86667 -16.933335,-16.93333 -25.400001,-50.8 -25.400002,-67.733329 H 127 c 0,8.466669 0,25.399999 8.46666,33.866669 8.46667,8.46666 48.92911,34.13393 48.92911,68.0006 0,25.4 -12.83238,52.6116 -21.29905,61.07826 -16.93333,16.93334 -53.29733,21.71751 -61.76399,21.71751 -33.866672,0 -58.999398,-49.19638 -67.466064,-74.59637 C 25.4,178.46666 16.933333,153.06666 0,153.06666 Z"
       id="path4565"
       inkscape:connector-curvature="0"
       sodipodi:nodetypes="ccccccccccccccc" />
  </g>
</svg>
