<?xml version="1.0" encoding="UTF-8" standalone="no"?>
<!-- Created with Inkscape (http://www.inkscape.org/) -->

<svg
   xmlns:dc="http://purl.org/dc/elements/1.1/"
   xmlns:cc="http://creativecommons.org/ns#"
   xmlns:rdf="http://www.w3.org/1999/02/22-rdf-syntax-ns#"
   xmlns:svg="http://www.w3.org/2000/svg"
   xmlns="http://www.w3.org/2000/svg"
   xmlns:sodipodi="http://sodipodi.sourceforge.net/DTD/sodipodi-0.dtd"
   xmlns:inkscape="http://www.inkscape.org/namespaces/inkscape"
   width="768"
   height="768"
   viewBox="0 0 203.19999 203.2"
   version="1.1"
   id="svg3719"
   sodipodi:docname="10_14_3.svg"
   inkscape:version="0.92.4 (5da689c313, 2019-01-14)">
  <defs
     id="defs3713" />
  <sodipodi:namedview
     id="base"
     pagecolor="#ffffff"
     bordercolor="#666666"
     borderopacity="1.0"
     inkscape:pageopacity="0.0"
     inkscape:pageshadow="2"
     inkscape:zoom="0.7"
     inkscape:cx="381.09969"
     inkscape:cy="411.68646"
     inkscape:document-units="mm"
     inkscape:current-layer="layer1"
     showgrid="true"
     units="px"
     inkscape:window-width="944"
     inkscape:window-height="1122"
     inkscape:window-x="0"
     inkscape:window-y="0"
     inkscape:window-maximized="0">
    <inkscape:grid
       type="xygrid"
       id="grid3721"
       spacingx="8.4666665"
       spacingy="8.4666665"
       enabled="true"
       empspacing="8" />
  </sodipodi:namedview>
  <metadata
     id="metadata3716">
    <rdf:RDF>
      <cc:Work
         rdf:about="">
        <dc:format>image/svg+xml</dc:format>
        <dc:type
           rdf:resource="http://purl.org/dc/dcmitype/StillImage" />
        <dc:title />
      </cc:Work>
    </rdf:RDF>
  </metadata>
  <g
     inkscape:label="Vrstva 1"
     inkscape:groupmode="layer"
     id="layer1"
     transform="translate(0,-93.799987)">
    <path
       style="fill:#000000;fill-opacity:1;stroke:#000000;stroke-width:0.26458332px;stroke-linecap:butt;stroke-linejoin:miter;stroke-opacity:1"
       d="m 0,102.26666 c 42.333332,0 76.199999,59.26666 101.6,59.26666 25.4,0 33.86666,-59.26666 101.6,-59.26666 v 50.8 c -33.86667,0 -50.8,59.26666 -101.6,59.26666 -50.800001,0 -61.425016,-58.80775 -101.6,-59.26666 z"
       id="path4565"
       inkscape:connector-curvature="0"
       sodipodi:nodetypes="ccccccc" />
    <path
       style="opacity:0;fill:#000000;stroke:none;stroke-width:2.02030516"
       d="M 347.41885,443.1351 C 313.29434,436.94333 279.12169,420.98482 244.79164,395.20855 232.22948,385.77643 201.72374,357.91039 170.46207,327.31078 141.29947,298.76581 109.25692,269.25907 99.256413,261.74025 69.5074,239.37367 42.825847,227.88735 8.8477599,222.81961 L 1.2716158,221.68965 V 127.83701 33.984365 h 7.8580417 c 21.9788945,0 56.9030665,10.151757 87.2892895,25.373248 36.656633,18.362555 70.428943,43.706017 142.238513,106.738827 83.58643,73.37025 110.91314,90.35812 145.84643,90.66662 12.50662,0.11051 16.41379,-0.80076 28.09825,-6.553 16.77322,-8.25743 37.47144,-27.62499 69.14829,-64.70281 C 538.60402,118.95998 576.84815,86.100056 622.92238,64.210218 661.722,45.776549 712.57807,33.984365 753.27719,33.984365 h 13.69005 v 93.852645 93.85264 l -7.57614,1.14867 c -29.28675,4.4404 -51.41141,14.04173 -77.27667,33.53535 -9.44493,7.11828 -40.35559,35.7078 -68.69037,63.53227 -67.71917,66.4996 -91.51901,85.48659 -130.30968,103.9583 -41.49315,19.75862 -92.82821,27.04899 -135.69553,19.27086 z"
       id="path9"
       inkscape:connector-curvature="0"
       transform="matrix(0.26458333,0,0,0.26458333,0,93.799987)" />
    <path
       style="opacity:0;fill:#000000;stroke:none;stroke-width:2.02030516"
       d="M 347.41885,443.1351 C 313.29434,436.94333 279.12169,420.98482 244.79164,395.20855 232.22948,385.77643 201.72374,357.91039 170.46207,327.31078 141.29947,298.76581 109.25692,269.25907 99.256413,261.74025 69.5074,239.37367 42.825847,227.88735 8.8477599,222.81961 L 1.2716158,221.68965 V 127.83701 33.984365 h 7.8580417 c 21.9788945,0 56.9030665,10.151757 87.2892895,25.373248 36.656633,18.362555 70.428943,43.706017 142.238513,106.738827 83.58643,73.37025 110.91314,90.35812 145.84643,90.66662 12.50662,0.11051 16.41379,-0.80076 28.09825,-6.553 16.77322,-8.25743 37.47144,-27.62499 69.14829,-64.70281 C 538.60402,118.95998 576.84815,86.100056 622.92238,64.210218 661.722,45.776549 712.57807,33.984365 753.27719,33.984365 h 13.69005 v 93.852645 93.85264 l -7.57614,1.14867 c -29.28675,4.4404 -51.41141,14.04173 -77.27667,33.53535 -9.44493,7.11828 -40.35559,35.7078 -68.69037,63.53227 -67.71917,66.4996 -91.51901,85.48659 -130.30968,103.9583 -41.49315,19.75862 -92.82821,27.04899 -135.69553,19.27086 z"
       id="path11"
       inkscape:connector-curvature="0"
       transform="matrix(0.26458333,0,0,0.26458333,0,93.799987)" />
    <path
       style="opacity:0;fill:#e6e6e6;stroke:none;stroke-width:2.02030516"
       d="M 347.41885,443.1351 C 313.29434,436.94333 279.12169,420.98482 244.79164,395.20855 232.22948,385.77643 201.72374,357.91039 170.46207,327.31078 141.29947,298.76581 109.25692,269.25907 99.256413,261.74025 69.5074,239.37367 42.825847,227.88735 8.8477599,222.81961 L 1.2716158,221.68965 V 127.83701 33.984365 h 7.8580417 c 21.9788945,0 56.9030665,10.151757 87.2892895,25.373248 36.656633,18.362555 70.428943,43.706017 142.238513,106.738827 83.58643,73.37025 110.91314,90.35812 145.84643,90.66662 12.50662,0.11051 16.41379,-0.80076 28.09825,-6.553 16.77322,-8.25743 37.47144,-27.62499 69.14829,-64.70281 C 538.60402,118.95998 576.84815,86.100056 622.92238,64.210218 661.722,45.776549 712.57807,33.984365 753.27719,33.984365 h 13.69005 v 93.852645 93.85264 l -7.57614,1.14867 c -29.28675,4.4404 -51.41141,14.04173 -77.27667,33.53535 -9.44493,7.11828 -40.35559,35.7078 -68.69037,63.53227 -67.71917,66.4996 -91.51901,85.48659 -130.30968,103.9583 -41.49315,19.75862 -92.82821,27.04899 -135.69553,19.27086 z"
       id="path13"
       inkscape:connector-curvature="0"
       transform="matrix(0.26458333,0,0,0.26458333,0,93.799987)" />
    <path
       style="opacity:0;fill:#ff2a2a;stroke:none;stroke-width:1.42857146"
       d="M 360.63963,445.56125 C 316.35081,440.55873 273.53266,420.41986 229.92535,384.08178 222.06821,377.53439 194.73856,351.59806 169.19281,326.44549 112.55275,270.67721 95.114235,256.17611 66.260362,240.85145 50.137521,232.28841 31.197409,226.13785 14.429291,224.01999 L 0.63963359,222.27832 V 127.44548 32.612635 L 11.711062,33.573568 c 51.441696,4.464824 100.264068,27.581872 162.218248,76.809192 14.92534,11.85931 33.36044,27.66501 79.28624,67.97757 53.25304,46.74428 77.68708,64.0025 104.56694,73.85768 13.70939,5.02637 34.86789,5.75021 46.7706,1.60004 20.33783,-7.09129 40.32032,-25.12332 81.01194,-73.1045 68.27693,-80.50816 119.03039,-117.097158 188.32839,-135.769034 23.37403,-6.297973 65.61889,-12.064412 88.53193,-12.084641 l 3.92857,-0.0035 v 94.683465 94.68345 l -12.04989,1.64314 c -15.27381,2.08275 -33.39722,8.30855 -47.23661,16.22683 -22.63953,12.95334 -40.51317,28.25176 -89.99921,77.03216 -59.31518,58.46937 -77.41069,74.04906 -108.33118,93.2699 -45.10851,28.04043 -98.64191,40.752 -148.0974,35.1659 z"
       id="path15"
       inkscape:connector-curvature="0"
       transform="matrix(0.26458333,0,0,0.26458333,0,93.799987)" />
    <path
       style="opacity:0;fill:#000000;stroke:none;stroke-width:1.42857146"
       d="M 360.63963,445.56125 C 316.35081,440.55873 273.53266,420.41986 229.92535,384.08178 222.06821,377.53439 194.73856,351.59806 169.19281,326.44549 112.55275,270.67721 95.114235,256.17611 66.260362,240.85145 50.137521,232.28841 31.197409,226.13785 14.429291,224.01999 L 0.63963359,222.27832 V 127.44548 32.612635 L 11.711062,33.573568 c 51.441696,4.464824 100.264068,27.581872 162.218248,76.809192 14.92534,11.85931 33.36044,27.66501 79.28624,67.97757 53.25304,46.74428 77.68708,64.0025 104.56694,73.85768 13.70939,5.02637 34.86789,5.75021 46.7706,1.60004 20.33783,-7.09129 40.32032,-25.12332 81.01194,-73.1045 68.27693,-80.50816 119.03039,-117.097158 188.32839,-135.769034 23.37403,-6.297973 65.61889,-12.064412 88.53193,-12.084641 l 3.92857,-0.0035 v 94.683465 94.68345 l -12.04989,1.64314 c -15.27381,2.08275 -33.39722,8.30855 -47.23661,16.22683 -22.63953,12.95334 -40.51317,28.25176 -89.99921,77.03216 -59.31518,58.46937 -77.41069,74.04906 -108.33118,93.2699 -45.10851,28.04043 -98.64191,40.752 -148.0974,35.1659 z"
       id="path17"
       inkscape:connector-curvature="0"
       transform="matrix(0.26458333,0,0,0.26458333,0,93.799987)" />
    <path
       style="opacity:0;fill:#000000;stroke:none;stroke-width:1.42857146"
       d="M 360.63963,445.56125 C 316.35081,440.55873 273.53266,420.41986 229.92535,384.08178 222.06821,377.53439 194.73856,351.59806 169.19281,326.44549 112.55275,270.67721 95.114235,256.17611 66.260362,240.85145 50.137521,232.28841 31.197409,226.13785 14.429291,224.01999 L 0.63963359,222.27832 V 127.44548 32.612635 L 11.711062,33.573568 c 51.441696,4.464824 100.264068,27.581872 162.218248,76.809192 14.92534,11.85931 33.36044,27.66501 79.28624,67.97757 53.25304,46.74428 77.68708,64.0025 104.56694,73.85768 13.70939,5.02637 34.86789,5.75021 46.7706,1.60004 20.33783,-7.09129 40.32032,-25.12332 81.01194,-73.1045 68.27693,-80.50816 119.03039,-117.097158 188.32839,-135.769034 23.37403,-6.297973 65.61889,-12.064412 88.53193,-12.084641 l 3.92857,-0.0035 v 94.683465 94.68345 l -12.04989,1.64314 c -15.27381,2.08275 -33.39722,8.30855 -47.23661,16.22683 -22.63953,12.95334 -40.51317,28.25176 -89.99921,77.03216 -59.31518,58.46937 -77.41069,74.04906 -108.33118,93.2699 -45.10851,28.04043 -98.64191,40.752 -148.0974,35.1659 z"
       id="path824"
       inkscape:connector-curvature="0"
       transform="matrix(0.26458333,0,0,0.26458333,0,93.799987)" />
    <path
       style="opacity:0;fill:#000000;stroke:none;stroke-width:1.42857146"
       d="M 360.63963,445.56125 C 316.35081,440.55873 273.53266,420.41986 229.92535,384.08178 222.06821,377.53439 194.73856,351.59806 169.19281,326.44549 112.55275,270.67721 95.114235,256.17611 66.260362,240.85145 50.137521,232.28841 31.197409,226.13785 14.429291,224.01999 L 0.63963359,222.27832 V 127.44548 32.612635 L 11.711062,33.573568 c 51.441696,4.464824 100.264068,27.581872 162.218248,76.809192 14.92534,11.85931 33.36044,27.66501 79.28624,67.97757 53.25304,46.74428 77.68708,64.0025 104.56694,73.85768 13.70939,5.02637 34.86789,5.75021 46.7706,1.60004 20.33783,-7.09129 40.32032,-25.12332 81.01194,-73.1045 68.27693,-80.50816 119.03039,-117.097158 188.32839,-135.769034 23.37403,-6.297973 65.61889,-12.064412 88.53193,-12.084641 l 3.92857,-0.0035 v 94.683465 94.68345 l -12.04989,1.64314 c -15.27381,2.08275 -33.39722,8.30855 -47.23661,16.22683 -22.63953,12.95334 -40.51317,28.25176 -89.99921,77.03216 -59.31518,58.46937 -77.41069,74.04906 -108.33118,93.2699 -45.10851,28.04043 -98.64191,40.752 -148.0974,35.1659 z"
       id="path826"
       inkscape:connector-curvature="0"
       transform="matrix(0.26458333,0,0,0.26458333,0,93.799987)" />
    <path
       style="opacity:0;fill:#000000;stroke:none;stroke-width:1.42857146"
       d="M 360.63963,445.56125 C 316.35081,440.55873 273.53266,420.41986 229.92535,384.08178 222.06821,377.53439 194.73856,351.59806 169.19281,326.44549 112.55275,270.67721 95.114235,256.17611 66.260362,240.85145 50.137521,232.28841 31.197409,226.13785 14.429291,224.01999 L 0.63963359,222.27832 V 127.44548 32.612635 L 11.711062,33.573568 c 51.441696,4.464824 100.264068,27.581872 162.218248,76.809192 14.92534,11.85931 33.36044,27.66501 79.28624,67.97757 53.25304,46.74428 77.68708,64.0025 104.56694,73.85768 13.70939,5.02637 34.86789,5.75021 46.7706,1.60004 20.33783,-7.09129 40.32032,-25.12332 81.01194,-73.1045 68.27693,-80.50816 119.03039,-117.097158 188.32839,-135.769034 23.37403,-6.297973 65.61889,-12.064412 88.53193,-12.084641 l 3.92857,-0.0035 v 94.683465 94.68345 l -12.04989,1.64314 c -15.27381,2.08275 -33.39722,8.30855 -47.23661,16.22683 -22.63953,12.95334 -40.51317,28.25176 -89.99921,77.03216 -59.31518,58.46937 -77.41069,74.04906 -108.33118,93.2699 -45.10851,28.04043 -98.64191,40.752 -148.0974,35.1659 z"
       id="path828"
       inkscape:connector-curvature="0"
       transform="matrix(0.26458333,0,0,0.26458333,0,93.799987)" />
    <path
       style="opacity:0;fill:#000000;stroke:none;stroke-width:1.42857146"
       d="M 360.63963,445.56125 C 316.35081,440.55873 273.53266,420.41986 229.92535,384.08178 222.06821,377.53439 194.73856,351.59806 169.19281,326.44549 112.55275,270.67721 95.114235,256.17611 66.260362,240.85145 50.137521,232.28841 31.197409,226.13785 14.429291,224.01999 L 0.63963359,222.27832 V 127.44548 32.612635 L 11.711062,33.573568 c 51.441696,4.464824 100.264068,27.581872 162.218248,76.809192 14.92534,11.85931 33.36044,27.66501 79.28624,67.97757 53.25304,46.74428 77.68708,64.0025 104.56694,73.85768 13.70939,5.02637 34.86789,5.75021 46.7706,1.60004 20.33783,-7.09129 40.32032,-25.12332 81.01194,-73.1045 68.27693,-80.50816 119.03039,-117.097158 188.32839,-135.769034 23.37403,-6.297973 65.61889,-12.064412 88.53193,-12.084641 l 3.92857,-0.0035 v 94.683465 94.68345 l -12.04989,1.64314 c -15.27381,2.08275 -33.39722,8.30855 -47.23661,16.22683 -22.63953,12.95334 -40.51317,28.25176 -89.99921,77.03216 -59.31518,58.46937 -77.41069,74.04906 -108.33118,93.2699 -45.10851,28.04043 -98.64191,40.752 -148.0974,35.1659 z"
       id="path830"
       inkscape:connector-curvature="0"
       transform="matrix(0.26458333,0,0,0.26458333,0,93.799987)" />
    <path
       style="opacity:0;fill:#000000;stroke:none;stroke-width:1.42857146"
       d="M 360.63963,445.56125 C 316.35081,440.55873 273.53266,420.41986 229.92535,384.08178 222.06821,377.53439 194.73856,351.59806 169.19281,326.44549 112.55275,270.67721 95.114235,256.17611 66.260362,240.85145 50.137521,232.28841 31.197409,226.13785 14.429291,224.01999 L 0.63963359,222.27832 V 127.44548 32.612635 L 11.711062,33.573568 c 51.441696,4.464824 100.264068,27.581872 162.218248,76.809192 14.92534,11.85931 33.36044,27.66501 79.28624,67.97757 53.25304,46.74428 77.68708,64.0025 104.56694,73.85768 13.70939,5.02637 34.86789,5.75021 46.7706,1.60004 20.33783,-7.09129 40.32032,-25.12332 81.01194,-73.1045 68.27693,-80.50816 119.03039,-117.097158 188.32839,-135.769034 23.37403,-6.297973 65.61889,-12.064412 88.53193,-12.084641 l 3.92857,-0.0035 v 94.683465 94.68345 l -12.04989,1.64314 c -15.27381,2.08275 -33.39722,8.30855 -47.23661,16.22683 -22.63953,12.95334 -40.51317,28.25176 -89.99921,77.03216 -59.31518,58.46937 -77.41069,74.04906 -108.33118,93.2699 -45.10851,28.04043 -98.64191,40.752 -148.0974,35.1659 z"
       id="path832"
       inkscape:connector-curvature="0"
       transform="matrix(0.26458333,0,0,0.26458333,0,93.799987)" />
    <path
       style="opacity:0;fill:#000000;stroke:none;stroke-width:1.42857146"
       d="M 360.63963,445.56125 C 316.35081,440.55873 273.53266,420.41986 229.92535,384.08178 222.06821,377.53439 194.73856,351.59806 169.19281,326.44549 112.55275,270.67721 95.114235,256.17611 66.260362,240.85145 50.137521,232.28841 31.197409,226.13785 14.429291,224.01999 L 0.63963359,222.27832 V 127.44548 32.612635 L 11.711062,33.573568 c 51.441696,4.464824 100.264068,27.581872 162.218248,76.809192 14.92534,11.85931 33.36044,27.66501 79.28624,67.97757 53.25304,46.74428 77.68708,64.0025 104.56694,73.85768 13.70939,5.02637 34.86789,5.75021 46.7706,1.60004 20.33783,-7.09129 40.32032,-25.12332 81.01194,-73.1045 68.27693,-80.50816 119.03039,-117.097158 188.32839,-135.769034 23.37403,-6.297973 65.61889,-12.064412 88.53193,-12.084641 l 3.92857,-0.0035 v 94.683465 94.68345 l -12.04989,1.64314 c -15.27381,2.08275 -33.39722,8.30855 -47.23661,16.22683 -22.63953,12.95334 -40.51317,28.25176 -89.99921,77.03216 -59.31518,58.46937 -77.41069,74.04906 -108.33118,93.2699 -45.10851,28.04043 -98.64191,40.752 -148.0974,35.1659 z"
       id="path834"
       inkscape:connector-curvature="0"
       transform="matrix(0.26458333,0,0,0.26458333,0,93.799987)" />
  </g>
</svg>
