<?xml version="1.0" encoding="UTF-8" standalone="no"?>
<!-- Created with Inkscape (http://www.inkscape.org/) -->

<svg
   xmlns:dc="http://purl.org/dc/elements/1.1/"
   xmlns:cc="http://creativecommons.org/ns#"
   xmlns:rdf="http://www.w3.org/1999/02/22-rdf-syntax-ns#"
   xmlns:svg="http://www.w3.org/2000/svg"
   xmlns="http://www.w3.org/2000/svg"
   xmlns:sodipodi="http://sodipodi.sourceforge.net/DTD/sodipodi-0.dtd"
   xmlns:inkscape="http://www.inkscape.org/namespaces/inkscape"
   width="768"
   height="768"
   viewBox="0 0 203.19999 203.2"
   version="1.1"
   id="svg3719"
   sodipodi:docname="_20_01_2.svg"
   inkscape:version="0.92.4 (5da689c313, 2019-01-14)">
  <defs
     id="defs3713">
    <inkscape:path-effect
       effect="spiro"
       id="path-effect816"
       is_visible="true" />
  </defs>
  <sodipodi:namedview
     id="base"
     pagecolor="#ffffff"
     bordercolor="#666666"
     borderopacity="1.0"
     inkscape:pageopacity="0.0"
     inkscape:pageshadow="2"
     inkscape:zoom="0.7"
     inkscape:cx="342.0622"
     inkscape:cy="410.23479"
     inkscape:document-units="mm"
     inkscape:current-layer="layer1"
     showgrid="true"
     units="px"
     inkscape:window-width="944"
     inkscape:window-height="1122"
     inkscape:window-x="0"
     inkscape:window-y="0"
     inkscape:window-maximized="0">
    <inkscape:grid
       type="xygrid"
       id="grid3721"
       spacingx="8.4666665"
       spacingy="8.4666665"
       enabled="true"
       empspacing="8" />
  </sodipodi:namedview>
  <metadata
     id="metadata3716">
    <rdf:RDF>
      <cc:Work
         rdf:about="">
        <dc:format>image/svg+xml</dc:format>
        <dc:type
           rdf:resource="http://purl.org/dc/dcmitype/StillImage" />
        <dc:title></dc:title>
      </cc:Work>
    </rdf:RDF>
  </metadata>
  <g
     inkscape:label="Vrstva 1"
     inkscape:groupmode="layer"
     id="layer1"
     transform="translate(0,-93.799987)">
    <path
       style="fill:#000000;fill-opacity:1;stroke:#000000;stroke-width:0.26458332px;stroke-linecap:butt;stroke-linejoin:miter;stroke-opacity:1"
       d="m 8.3330259,93.933626 c 0,42.333334 42.3333301,59.266664 67.7333301,67.733334 25.400004,8.46666 59.266664,16.93333 59.266664,33.86667 0,8.46666 0,16.93333 -8.46666,25.4 -8.46667,8.46666 -16.93333,8.46666 -25.4,8.46666 -16.933334,0 -16.933334,-16.93333 -33.866674,-33.86666 -16.93333,-16.93334 -50.8,-25.40001 -67.73332012,-25.40001 v 50.80001 c 8.46666002,0 25.39999012,0 33.86666012,8.46666 8.46666,8.46667 34.13393,48.92911 68.000604,48.92911 25.4,0 52.6116,-12.83238 61.07826,-21.29905 16.93334,-16.93333 21.71751,-53.29733 21.71751,-61.76399 0,-33.86668 -49.19638,-58.9994 -74.59637,-67.46607 C 84.533026,119.33363 59.133026,110.86696 59.133026,93.933626 Z"
       id="path4565"
       inkscape:connector-curvature="0"
       sodipodi:nodetypes="ccccccccccccccc" />
  </g>
</svg>
