<?xml version="1.0" encoding="UTF-8" standalone="no"?>
<!-- Created with Inkscape (http://www.inkscape.org/) -->

<svg
   xmlns:dc="http://purl.org/dc/elements/1.1/"
   xmlns:cc="http://creativecommons.org/ns#"
   xmlns:rdf="http://www.w3.org/1999/02/22-rdf-syntax-ns#"
   xmlns:svg="http://www.w3.org/2000/svg"
   xmlns="http://www.w3.org/2000/svg"
   xmlns:sodipodi="http://sodipodi.sourceforge.net/DTD/sodipodi-0.dtd"
   xmlns:inkscape="http://www.inkscape.org/namespaces/inkscape"
   width="768"
   height="768"
   viewBox="0 0 203.19999 203.2"
   version="1.1"
   id="svg3719"
   sodipodi:docname="_20_24_3.svg"
   inkscape:version="0.92.4 (5da689c313, 2019-01-14)">
  <defs
     id="defs3713" />
  <sodipodi:namedview
     id="base"
     pagecolor="#ffffff"
     bordercolor="#666666"
     borderopacity="1.0"
     inkscape:pageopacity="0.0"
     inkscape:pageshadow="2"
     inkscape:zoom="0.98994949"
     inkscape:cx="379.78162"
     inkscape:cy="361.62673"
     inkscape:document-units="mm"
     inkscape:current-layer="layer1"
     showgrid="true"
     units="px"
     inkscape:window-width="944"
     inkscape:window-height="1122"
     inkscape:window-x="0"
     inkscape:window-y="0"
     inkscape:window-maximized="0">
    <inkscape:grid
       type="xygrid"
       id="grid3721"
       spacingx="8.4666665"
       spacingy="8.4666665"
       enabled="true"
       empspacing="8" />
  </sodipodi:namedview>
  <metadata
     id="metadata3716">
    <rdf:RDF>
      <cc:Work
         rdf:about="">
        <dc:format>image/svg+xml</dc:format>
        <dc:type
           rdf:resource="http://purl.org/dc/dcmitype/StillImage" />
        <dc:title></dc:title>
      </cc:Work>
    </rdf:RDF>
  </metadata>
  <g
     inkscape:label="Vrstva 1"
     inkscape:groupmode="layer"
     id="layer1"
     transform="translate(0,-93.799987)">
    <path
       style="fill:#000000;fill-opacity:1;stroke:#000000;stroke-width:0.26458332px;stroke-linecap:butt;stroke-linejoin:miter;stroke-opacity:1"
       d="m 0,169.99999 c 42.333331,0 76.199998,59.26666 101.6,59.26666 25.4,0 33.86666,-59.26666 101.6,-59.26666 v 50.8 c -33.86667,0 -50.8,59.26666 -101.6,59.26666 -50.800002,0 -61.425017,-58.80775 -101.6,-59.26666 z"
       id="path4565"
       inkscape:connector-curvature="0"
       sodipodi:nodetypes="ccccccc" />
    <path
       style="opacity:0;fill:#000000;stroke:none;stroke-width:0.53453904"
       d="M 91.584788,278.25445 C 82.556011,276.61621 73.514497,272.39386 64.431339,265.57389 61.1076,263.07831 53.03629,255.70542 44.764973,247.60927 37.049036,240.05675 28.571111,232.24975 25.925144,230.2604 18.054051,224.34258 10.994557,221.30349 2.0045214,219.96265 L 0,219.66368 v -24.83185 -24.83184 h 2.0791069 c 5.815249,0 15.0556021,2.68598 23.0952901,6.71334 9.698734,4.85842 18.634325,11.56388 37.63394,28.24131 22.115576,19.41255 29.345768,23.90725 38.588533,23.98888 3.30904,0.0292 4.34281,-0.21187 7.43433,-1.73382 4.43791,-2.18477 9.91431,-7.30911 18.29548,-17.11928 15.04251,-17.6073 25.16127,-26.30149 37.35174,-32.09317 10.26574,-4.87725 23.72141,-7.99726 34.48971,-7.99726 h 3.62216 v 24.83184 24.83185 l -2.00452,0.30392 c -7.74878,1.17485 -13.6026,3.71521 -20.44612,8.87289 -2.49897,1.88338 -10.67741,9.44769 -18.17432,16.80958 -17.91737,17.59469 -24.21441,22.61833 -34.47777,27.50563 -10.9784,5.22781 -24.5608,7.15672 -35.902772,5.09875 z"
       id="path9"
       inkscape:connector-curvature="0" />
    <path
       style="opacity:0;fill:#000000;stroke:none;stroke-width:0.53453904"
       d="M 91.584788,278.25445 C 82.556011,276.61621 73.514497,272.39386 64.431339,265.57389 61.1076,263.07831 53.03629,255.70542 44.764973,247.60927 37.049036,240.05675 28.571111,232.24975 25.925144,230.2604 18.054051,224.34258 10.994557,221.30349 2.0045214,219.96265 L 0,219.66368 v -24.83185 -24.83184 h 2.0791069 c 5.815249,0 15.0556021,2.68598 23.0952901,6.71334 9.698734,4.85842 18.634325,11.56388 37.63394,28.24131 22.115576,19.41255 29.345768,23.90725 38.588533,23.98888 3.30904,0.0292 4.34281,-0.21187 7.43433,-1.73382 4.43791,-2.18477 9.91431,-7.30911 18.29548,-17.11928 15.04251,-17.6073 25.16127,-26.30149 37.35174,-32.09317 10.26574,-4.87725 23.72141,-7.99726 34.48971,-7.99726 h 3.62216 v 24.83184 24.83185 l -2.00452,0.30392 c -7.74878,1.17485 -13.6026,3.71521 -20.44612,8.87289 -2.49897,1.88338 -10.67741,9.44769 -18.17432,16.80958 -17.91737,17.59469 -24.21441,22.61833 -34.47777,27.50563 -10.9784,5.22781 -24.5608,7.15672 -35.902772,5.09875 z"
       id="path11"
       inkscape:connector-curvature="0" />
    <path
       style="opacity:0;fill:#e6e6e6;stroke:none;stroke-width:0.53453904"
       d="M 91.584788,278.25445 C 82.556011,276.61621 73.514497,272.39386 64.431339,265.57389 61.1076,263.07831 53.03629,255.70542 44.764973,247.60927 37.049036,240.05675 28.571111,232.24975 25.925144,230.2604 18.054051,224.34258 10.994557,221.30349 2.0045214,219.96265 L 0,219.66368 v -24.83185 -24.83184 h 2.0791069 c 5.815249,0 15.0556021,2.68598 23.0952901,6.71334 9.698734,4.85842 18.634325,11.56388 37.63394,28.24131 22.115576,19.41255 29.345768,23.90725 38.588533,23.98888 3.30904,0.0292 4.34281,-0.21187 7.43433,-1.73382 4.43791,-2.18477 9.91431,-7.30911 18.29548,-17.11928 15.04251,-17.6073 25.16127,-26.30149 37.35174,-32.09317 10.26574,-4.87725 23.72141,-7.99726 34.48971,-7.99726 h 3.62216 v 24.83184 24.83185 l -2.00452,0.30392 c -7.74878,1.17485 -13.6026,3.71521 -20.44612,8.87289 -2.49897,1.88338 -10.67741,9.44769 -18.17432,16.80958 -17.91737,17.59469 -24.21441,22.61833 -34.47777,27.50563 -10.9784,5.22781 -24.5608,7.15672 -35.902772,5.09875 z"
       id="path13"
       inkscape:connector-curvature="0" />
    <path
       style="opacity:0;fill:#ff2a2a;stroke:none;stroke-width:0.37797621"
       d="M 95.082785,278.89637 C 83.364702,277.57279 72.035733,272.24438 60.497966,262.62993 58.419098,260.8976 51.188128,254.03528 44.429148,247.38033 29.443133,232.62497 24.829192,228.78822 17.194938,224.73357 12.929104,222.46793 7.917866,220.8406 3.4813015,220.28025 l -3.6485135,-0.46082 v -25.09119 -25.09119 l 2.9293155,0.25425 c 13.6106145,1.18132 26.5282005,7.2977 42.9202435,20.32243 3.948996,3.13778 8.826617,7.3197 20.977818,17.98573 14.089866,12.36776 20.554706,16.934 27.666669,19.54151 3.627276,1.3299 9.225456,1.52141 12.374716,0.42335 5.38105,-1.87624 10.66809,-6.64721 21.43441,-19.34223 18.06494,-21.30112 31.49346,-30.98196 49.82855,-35.92223 6.18438,-1.66634 17.36167,-3.19204 23.42408,-3.19739 l 1.03943,-9.3e-4 v 25.05167 25.05166 l -3.1882,0.43475 c -4.0412,0.55106 -8.83635,2.1983 -12.49802,4.29335 -5.99004,3.42723 -10.71911,7.47494 -23.81229,20.38142 -15.69381,15.47002 -20.48158,19.59215 -28.66263,24.67766 -11.93496,7.41903 -26.099,10.7823 -39.184095,9.30431 z"
       id="path15"
       inkscape:connector-curvature="0" />
    <path
       style="opacity:0;fill:#000000;stroke:none;stroke-width:0.37797621"
       d="M 95.082785,278.89637 C 83.364702,277.57279 72.035733,272.24438 60.497966,262.62993 58.419098,260.8976 51.188128,254.03528 44.429148,247.38033 29.443133,232.62497 24.829192,228.78822 17.194938,224.73357 12.929104,222.46793 7.917866,220.8406 3.4813015,220.28025 l -3.6485135,-0.46082 v -25.09119 -25.09119 l 2.9293155,0.25425 c 13.6106145,1.18132 26.5282005,7.2977 42.9202435,20.32243 3.948996,3.13778 8.826617,7.3197 20.977818,17.98573 14.089866,12.36776 20.554706,16.934 27.666669,19.54151 3.627276,1.3299 9.225456,1.52141 12.374716,0.42335 5.38105,-1.87624 10.66809,-6.64721 21.43441,-19.34223 18.06494,-21.30112 31.49346,-30.98196 49.82855,-35.92223 6.18438,-1.66634 17.36167,-3.19204 23.42408,-3.19739 l 1.03943,-9.3e-4 v 25.05167 25.05166 l -3.1882,0.43475 c -4.0412,0.55106 -8.83635,2.1983 -12.49802,4.29335 -5.99004,3.42723 -10.71911,7.47494 -23.81229,20.38142 -15.69381,15.47002 -20.48158,19.59215 -28.66263,24.67766 -11.93496,7.41903 -26.099,10.7823 -39.184095,9.30431 z"
       id="path17"
       inkscape:connector-curvature="0" />
    <path
       style="opacity:0;fill:#000000;stroke:none;stroke-width:0.37797621"
       d="M 95.082785,278.89637 C 83.364702,277.57279 72.035733,272.24438 60.497966,262.62993 58.419098,260.8976 51.188128,254.03528 44.429148,247.38033 29.443133,232.62497 24.829192,228.78822 17.194938,224.73357 12.929104,222.46793 7.917866,220.8406 3.4813015,220.28025 l -3.6485135,-0.46082 v -25.09119 -25.09119 l 2.9293155,0.25425 c 13.6106145,1.18132 26.5282005,7.2977 42.9202435,20.32243 3.948996,3.13778 8.826617,7.3197 20.977818,17.98573 14.089866,12.36776 20.554706,16.934 27.666669,19.54151 3.627276,1.3299 9.225456,1.52141 12.374716,0.42335 5.38105,-1.87624 10.66809,-6.64721 21.43441,-19.34223 18.06494,-21.30112 31.49346,-30.98196 49.82855,-35.92223 6.18438,-1.66634 17.36167,-3.19204 23.42408,-3.19739 l 1.03943,-9.3e-4 v 25.05167 25.05166 l -3.1882,0.43475 c -4.0412,0.55106 -8.83635,2.1983 -12.49802,4.29335 -5.99004,3.42723 -10.71911,7.47494 -23.81229,20.38142 -15.69381,15.47002 -20.48158,19.59215 -28.66263,24.67766 -11.93496,7.41903 -26.099,10.7823 -39.184095,9.30431 z"
       id="path824"
       inkscape:connector-curvature="0" />
    <path
       style="opacity:0;fill:#000000;stroke:none;stroke-width:0.37797621"
       d="M 95.082785,278.89637 C 83.364702,277.57279 72.035733,272.24438 60.497966,262.62993 58.419098,260.8976 51.188128,254.03528 44.429148,247.38033 29.443133,232.62497 24.829192,228.78822 17.194938,224.73357 12.929104,222.46793 7.917866,220.8406 3.4813015,220.28025 l -3.6485135,-0.46082 v -25.09119 -25.09119 l 2.9293155,0.25425 c 13.6106145,1.18132 26.5282005,7.2977 42.9202435,20.32243 3.948996,3.13778 8.826617,7.3197 20.977818,17.98573 14.089866,12.36776 20.554706,16.934 27.666669,19.54151 3.627276,1.3299 9.225456,1.52141 12.374716,0.42335 5.38105,-1.87624 10.66809,-6.64721 21.43441,-19.34223 18.06494,-21.30112 31.49346,-30.98196 49.82855,-35.92223 6.18438,-1.66634 17.36167,-3.19204 23.42408,-3.19739 l 1.03943,-9.3e-4 v 25.05167 25.05166 l -3.1882,0.43475 c -4.0412,0.55106 -8.83635,2.1983 -12.49802,4.29335 -5.99004,3.42723 -10.71911,7.47494 -23.81229,20.38142 -15.69381,15.47002 -20.48158,19.59215 -28.66263,24.67766 -11.93496,7.41903 -26.099,10.7823 -39.184095,9.30431 z"
       id="path826"
       inkscape:connector-curvature="0" />
    <path
       style="opacity:0;fill:#000000;stroke:none;stroke-width:0.37797621"
       d="M 95.082785,278.89637 C 83.364702,277.57279 72.035733,272.24438 60.497966,262.62993 58.419098,260.8976 51.188128,254.03528 44.429148,247.38033 29.443133,232.62497 24.829192,228.78822 17.194938,224.73357 12.929104,222.46793 7.917866,220.8406 3.4813015,220.28025 l -3.6485135,-0.46082 v -25.09119 -25.09119 l 2.9293155,0.25425 c 13.6106145,1.18132 26.5282005,7.2977 42.9202435,20.32243 3.948996,3.13778 8.826617,7.3197 20.977818,17.98573 14.089866,12.36776 20.554706,16.934 27.666669,19.54151 3.627276,1.3299 9.225456,1.52141 12.374716,0.42335 5.38105,-1.87624 10.66809,-6.64721 21.43441,-19.34223 18.06494,-21.30112 31.49346,-30.98196 49.82855,-35.92223 6.18438,-1.66634 17.36167,-3.19204 23.42408,-3.19739 l 1.03943,-9.3e-4 v 25.05167 25.05166 l -3.1882,0.43475 c -4.0412,0.55106 -8.83635,2.1983 -12.49802,4.29335 -5.99004,3.42723 -10.71911,7.47494 -23.81229,20.38142 -15.69381,15.47002 -20.48158,19.59215 -28.66263,24.67766 -11.93496,7.41903 -26.099,10.7823 -39.184095,9.30431 z"
       id="path828"
       inkscape:connector-curvature="0" />
    <path
       style="opacity:0;fill:#000000;stroke:none;stroke-width:0.37797621"
       d="M 95.082785,278.89637 C 83.364702,277.57279 72.035733,272.24438 60.497966,262.62993 58.419098,260.8976 51.188128,254.03528 44.429148,247.38033 29.443133,232.62497 24.829192,228.78822 17.194938,224.73357 12.929104,222.46793 7.917866,220.8406 3.4813015,220.28025 l -3.6485135,-0.46082 v -25.09119 -25.09119 l 2.9293155,0.25425 c 13.6106145,1.18132 26.5282005,7.2977 42.9202435,20.32243 3.948996,3.13778 8.826617,7.3197 20.977818,17.98573 14.089866,12.36776 20.554706,16.934 27.666669,19.54151 3.627276,1.3299 9.225456,1.52141 12.374716,0.42335 5.38105,-1.87624 10.66809,-6.64721 21.43441,-19.34223 18.06494,-21.30112 31.49346,-30.98196 49.82855,-35.92223 6.18438,-1.66634 17.36167,-3.19204 23.42408,-3.19739 l 1.03943,-9.3e-4 v 25.05167 25.05166 l -3.1882,0.43475 c -4.0412,0.55106 -8.83635,2.1983 -12.49802,4.29335 -5.99004,3.42723 -10.71911,7.47494 -23.81229,20.38142 -15.69381,15.47002 -20.48158,19.59215 -28.66263,24.67766 -11.93496,7.41903 -26.099,10.7823 -39.184095,9.30431 z"
       id="path830"
       inkscape:connector-curvature="0" />
    <path
       style="opacity:0;fill:#000000;stroke:none;stroke-width:0.37797621"
       d="M 95.082785,278.89637 C 83.364702,277.57279 72.035733,272.24438 60.497966,262.62993 58.419098,260.8976 51.188128,254.03528 44.429148,247.38033 29.443133,232.62497 24.829192,228.78822 17.194938,224.73357 12.929104,222.46793 7.917866,220.8406 3.4813015,220.28025 l -3.6485135,-0.46082 v -25.09119 -25.09119 l 2.9293155,0.25425 c 13.6106145,1.18132 26.5282005,7.2977 42.9202435,20.32243 3.948996,3.13778 8.826617,7.3197 20.977818,17.98573 14.089866,12.36776 20.554706,16.934 27.666669,19.54151 3.627276,1.3299 9.225456,1.52141 12.374716,0.42335 5.38105,-1.87624 10.66809,-6.64721 21.43441,-19.34223 18.06494,-21.30112 31.49346,-30.98196 49.82855,-35.92223 6.18438,-1.66634 17.36167,-3.19204 23.42408,-3.19739 l 1.03943,-9.3e-4 v 25.05167 25.05166 l -3.1882,0.43475 c -4.0412,0.55106 -8.83635,2.1983 -12.49802,4.29335 -5.99004,3.42723 -10.71911,7.47494 -23.81229,20.38142 -15.69381,15.47002 -20.48158,19.59215 -28.66263,24.67766 -11.93496,7.41903 -26.099,10.7823 -39.184095,9.30431 z"
       id="path832"
       inkscape:connector-curvature="0" />
    <path
       style="opacity:0;fill:#000000;stroke:none;stroke-width:0.37797621"
       d="M 95.082785,278.89637 C 83.364702,277.57279 72.035733,272.24438 60.497966,262.62993 58.419098,260.8976 51.188128,254.03528 44.429148,247.38033 29.443133,232.62497 24.829192,228.78822 17.194938,224.73357 12.929104,222.46793 7.917866,220.8406 3.4813015,220.28025 l -3.6485135,-0.46082 v -25.09119 -25.09119 l 2.9293155,0.25425 c 13.6106145,1.18132 26.5282005,7.2977 42.9202435,20.32243 3.948996,3.13778 8.826617,7.3197 20.977818,17.98573 14.089866,12.36776 20.554706,16.934 27.666669,19.54151 3.627276,1.3299 9.225456,1.52141 12.374716,0.42335 5.38105,-1.87624 10.66809,-6.64721 21.43441,-19.34223 18.06494,-21.30112 31.49346,-30.98196 49.82855,-35.92223 6.18438,-1.66634 17.36167,-3.19204 23.42408,-3.19739 l 1.03943,-9.3e-4 v 25.05167 25.05166 l -3.1882,0.43475 c -4.0412,0.55106 -8.83635,2.1983 -12.49802,4.29335 -5.99004,3.42723 -10.71911,7.47494 -23.81229,20.38142 -15.69381,15.47002 -20.48158,19.59215 -28.66263,24.67766 -11.93496,7.41903 -26.099,10.7823 -39.184095,9.30431 z"
       id="path834"
       inkscape:connector-curvature="0" />
  </g>
</svg>
